PathFileType	4	(X/Y/Z)	C:\Users\Basilio\Documents\Thesis Gigler\squatting_fais\c3dfiles\040\SLS_pre_front1\markers_experimental.trc
DataRate	CameraRate	NumFrames	NumMarkers	Units	OrigDataRate	OrigDataStartFrame	OrigNumFrames
200.000000	200.000000	4	62	mm	200.000000	0	1129
Frame#	Time	FHD			LBHD			RBHD			C7			T10			CLAV			LSHO			LUUPA			LMUPA			LDUPA			LLEP			LMEP			LRAD			LUL			LRFIN			RSHO			RUPA1			RMUPA			RDUPA			RLEP			RMEP			RRAD			RUL			RUFIN			LASI			RASI			USACR			LSACR			RSACR			LTHI1			LTHI2			LTHI3			LTHI4			LLFC			LMFC			LTIB1			LTIB2			LTIB3			LTIB4			LLMAL			LMMAL			LHEE			LMT1			LMT2			LMT5			RTHI			RTHI2			RTHI3			RTHI4			RLFC			RMFC			RTIB1			RTIB2			RTIB3			RTIB4			RLMAL			RMMAL			RHEE			RMT1			RMT2			RMT5			*61			
		X1	Y1	Z1	X2	Y2	Z2	X3	Y3	Z3	X4	Y4	Z4	X5	Y5	Z5	X6	Y6	Z6	X7	Y7	Z7	X8	Y8	Z8	X9	Y9	Z9	X10	Y10	Z10	X11	Y11	Z11	X12	Y12	Z12	X13	Y13	Z13	X14	Y14	Z14	X15	Y15	Z15	X16	Y16	Z16	X17	Y17	Z17	X18	Y18	Z18	X19	Y19	Z19	X20	Y20	Z20	X21	Y21	Z21	X22	Y22	Z22	X23	Y23	Z23	X24	Y24	Z24	X25	Y25	Z25	X26	Y26	Z26	X27	Y27	Z27	X28	Y28	Z28	X29	Y29	Z29	X30	Y30	Z30	X31	Y31	Z31	X32	Y32	Z32	X33	Y33	Z33	X34	Y34	Z34	X35	Y35	Z35	X36	Y36	Z36	X37	Y37	Z37	X38	Y38	Z38	X39	Y39	Z39	X40	Y40	Z40	X41	Y41	Z41	X42	Y42	Z42	X43	Y43	Z43	X44	Y44	Z44	X45	Y45	Z45	X46	Y46	Z46	X47	Y47	Z47	X48	Y48	Z48	X49	Y49	Z49	X50	Y50	Z50	X51	Y51	Z51	X52	Y52	Z52	X53	Y53	Z53	X54	Y54	Z54	X55	Y55	Z55	X56	Y56	Z56	X57	Y57	Z57	X58	Y58	Z58	X59	Y59	Z59	X60	Y60	Z60	X61	Y61	Z61	X62	Y62	Z62	

1	0	-124.4320526123047	1761.757690429688	-1058.061279296875	-245.0144653320313	1728.518310546875	-1123.638671875	-324.5853576660157	1694.436279296875	-1004.288818359375	-344.7978210449219	1569.889038085938	-1045.253051757813	-389.1809082031251	1251.69482421875	-1040.50244140625	-225.6351470947266	1488.513549804688	-1046.002319335938	-279.4331970214844	1525.310791015625	-1221.336791992188	-309.0449218750001	1316.9638671875	-1303.373413085938	-268.4505920410157	1292.599609375	-1290.5361328125	-306.9675903320313	1248.341430664063	-1310.705688476563	-316.8779296875001	1184.80517578125	-1308.588500976563	-339.2254028320313	1174.428100585938	-1245.64501953125	-131.4345855712891	967.568054199219	-1268.9677734375	-177.1004028320313	948.0132446289065	-1327.796264648438	-88.34359741210939	886.4248046875002	-1283.74853515625	-259.8959960937501	1500.40234375	-877.1625976562502	-275.1365051269532	1290.924560546875	-794.5050048828127	-236.7347259521485	1269.95361328125	-815.6047973632815	-265.4437255859376	1222.36474609375	-793.2437133789065	-252.1354370117188	1160.17724609375	-796.4244384765627	-297.7742919921876	1147.104125976563	-857.5390625000002	-79.23896789550783	942.4129638671877	-885.356628417969	-124.4440460205078	915.2688598632815	-830.7800292968752	-26.20925521850587	871.685485839844	-865.1687622070315	-208.7604522705079	1073.643432617188	-1148.29345703125	-216.468002319336	1078.339599609375	-916.9809570312502	-398.3384399414064	1111.318359375	-1034.672119140625	-404.0773315429689	1081.678955078125	-1062.459350585938	-409.2731323242189	1080.915649414063	-1006.898742675781	-316.4803466796876	813.578063964844	-1198.511352539063	-274.3594055175782	740.1676025390626	-1199.61474609375	-228.327133178711	746.6747436523439	-1203.634033203125	-293.6542053222657	686.3060302734376	-1185.06396484375	-270.2702941894532	554.1410522460939	-1170.388916015625	-269.4842224121094	540.6968383789064	-1039.100708007813	-252.5315856933594	327.7242126464844	-1117.987670898438	-326.9470214843751	295.2369079589844	-1153.8408203125	-284.7231750488282	284.7254638671876	-1141.331787109375	-282.9330139160157	207.374008178711	-1101.128295898438	-357.7239990234376	125.8602676391602	-1105.297973632813	-319.8694152832032	141.2908935546875	-1027.4580078125	-415.0063781738282	96.80598449707034	-1049.150146484375	-199.7798461914063	59.0563316345215	-1049.781372070313	-205.7873535156251	53.28356933593751	-1095.607666015625	-262.0213317871094	37.58431625366212	-1137.982055664063	-242.1901092529297	811.4710693359377	-830.4150390625002	-200.5983123779297	758.8151855468751	-831.0002441406252	-168.408447265625	764.6779174804689	-837.424987792969	-221.5329589843751	678.4337158203126	-837.3952636718752	-201.5084533691407	551.0366821289064	-836.0964965820315	-202.509262084961	532.3940429687501	-967.1069946289065	-182.2812194824219	358.9213562011719	-839.2520751953127	-268.6919250488282	301.2132568359376	-810.7011718750002	-225.2178192138672	286.7659301757813	-817.8354492187502	-217.3032836914063	234.9322052001954	-844.8850097656252	-294.0301513671876	138.5159759521485	-813.4141235351565	-268.2293090820313	136.710693359375	-899.2266845703127	-359.2672729492188	91.72322082519533	-868.1909790039065	-139.2088012695313	56.48520278930665	-851.483093261719	-146.838363647461	64.12369537353517	-813.9437255859377	-196.0801544189454	52.47689056396486	-764.9887695312501	nan	nan	nan	
2	0.005	-124.8165588378907	1761.595825195313	-1059.201538085938	-245.8732910156251	1728.223022460938	-1124.415161132813	-324.8574218750001	1694.1064453125	-1004.75048828125	-345.2661743164063	1569.618408203125	-1046.01953125	-389.9021301269532	1251.453857421875	-1040.987915039063	-226.0516357421876	1488.151245117188	-1046.838134765625	-279.7045898437501	1524.985107421875	-1222.058349609375	-308.1040344238282	1316.794799804688	-1304.564819335938	-267.5903930664063	1292.7275390625	-1291.4990234375	-305.9000549316407	1248.276611328125	-1312.192993164063	-315.2320556640626	1184.576538085938	-1309.998046875	-337.8234558105469	1173.967651367188	-1247.372436523438	-128.8728637695313	967.0919189453127	-1268.992919921875	-173.9514312744141	948.6289672851565	-1328.752197265625	-85.4675750732422	887.4009399414065	-1283.845825195313	-260.3885803222657	1500.07958984375	-878.0093994140627	-275.3276367187501	1290.484252929688	-795.5747070312502	-236.3767852783204	1269.820068359375	-816.7921142578127	-265.2664184570313	1222.048095703125	-794.2395019531252	-251.7046661376954	1159.655029296875	-797.5207519531252	-297.5264892578126	1146.69580078125	-858.4771118164065	-78.71817779541017	943.2691650390627	-886.2960205078127	-123.2396392822266	915.4805908203127	-831.4260864257815	-24.67972373962403	872.1607055664065	-866.0124511718752	-209.4204406738282	1073.425415039063	-1148.578979492188	-217.1605224609376	1077.899169921875	-917.236022949219	-398.9819335937501	1110.803100585938	-1034.854370117188	-404.8027343750001	1081.318481445313	-1062.657348632813	-409.8497924804689	1080.5400390625	-1007.079711914063	-316.5841674804688	813.3289184570315	-1198.749267578125	-274.3600463867188	740.0496826171876	-1199.822265625	-228.3225097656251	746.5958862304689	-1203.836303710938	-293.5726318359376	686.1244506835939	-1185.25927734375	-269.9533081054688	553.9784545898439	-1170.551147460938	-269.9325866699219	540.4201049804689	-1038.766235351563	-252.1556396484376	327.6068115234376	-1118.002319335938	-326.6848754882813	295.1116027832032	-1153.801147460938	-284.3557434082032	284.5256958007813	-1141.289184570313	-282.7954406738282	207.2463989257813	-1100.87548828125	-357.6834411621094	125.8382339477539	-1105.216064453125	-319.8678894042969	141.1576690673828	-1027.31640625	-414.9764404296876	96.78601837158206	-1049.111694335938	-199.5991973876954	58.76472091674806	-1049.798095703125	-205.7947692871094	53.21907806396486	-1095.573364257813	-261.9783935546876	37.57524108886719	-1138.010009765625	-240.4938659667969	810.6950683593752	-831.1340332031252	-199.1080780029297	758.4303588867189	-831.8476562500002	-166.5171661376953	764.8304443359376	-838.2508544921877	-218.0943756103516	678.5037231445314	-837.8760986328127	-198.2821960449219	550.6580810546876	-837.5426025390627	-199.7993316650391	531.6849365234376	-968.4581298828127	-179.9219207763672	358.4853820800782	-841.118347167969	-266.3728942871094	301.1094665527344	-812.4196777343752	-223.8376464843751	286.8199157714844	-819.3514404296877	-215.6961669921876	234.4580688476563	-846.6145019531252	-293.5928955078126	139.1012115478516	-814.9796142578127	-267.7063293457032	136.9508666992188	-900.797302246094	-358.9647521972657	92.12059020996095	-869.7886962890627	-139.1626434326172	56.97488021850587	-852.8021240234377	-146.6861572265625	64.86141204833986	-814.8452148437502	-195.8904571533204	53.78651428222658	-766.0687866210939	nan	nan	nan	
3	0.01	-125.5871124267578	1761.097534179688	-1060.5458984375	-246.5164031982422	1727.957275390625	-1125.115966796875	-325.4185180664063	1693.520263671875	-1005.318054199219	-345.6895751953126	1569.363525390625	-1046.93115234375	-390.381072998047	1251.203735351563	-1041.349731445313	-226.3348541259766	1487.827026367188	-1047.556396484375	-280.0232849121094	1524.63330078125	-1222.702270507813	-307.1479187011719	1316.678100585938	-1305.639282226563	-266.4448852539063	1293.052124023438	-1291.885131835938	-304.5068664550782	1248.171142578125	-1313.45751953125	-313.3707275390626	1184.42529296875	-1311.555541992188	-336.3958740234376	1173.547241210938	-1249.131713867188	-126.2208633422852	968.4024047851565	-1269.728759765625	-170.7473754882813	949.1739501953127	-1329.608154296875	-82.2927932739258	888.4492797851565	-1284.4169921875	-260.9538269042969	1499.727416992188	-878.8978271484377	-275.4652709960938	1290.123901367188	-796.4967041015627	-235.9531555175782	1269.929077148438	-816.9078369140627	-265.4461669921876	1221.671752929688	-795.1499023437502	-251.6305236816407	1159.323974609375	-798.3173828125002	-294.9907226562501	1145.611328125	-861.0164184570315	-77.19345092773439	943.6616821289065	-887.144226074219	-121.7897567749024	915.7884521484377	-832.4785766601565	-23.34030723571778	872.6790771484377	-866.6675415039065	-209.8938598632813	1073.207275390625	-1148.802734375	-217.9365539550782	1077.443115234375	-917.5582275390627	-399.4642639160157	1110.8798828125	-1035.000610351563	-405.453826904297	1080.934692382813	-1062.877807617188	-410.2934570312501	1080.070434570313	-1007.211730957031	-316.7288818359376	813.1702880859377	-1198.979370117188	-274.2922668457032	739.9153442382814	-1199.969970703125	-228.3675079345704	746.5932617187501	-1203.9931640625	-293.4351806640626	685.9901733398439	-1185.450439453125	-269.6631469726563	553.8397827148439	-1170.70751953125	-269.8283386230469	540.3312988281251	-1038.935791015625	-251.5353393554688	327.5045166015626	-1118.125	-326.3530578613282	294.9912414550782	-1153.682739257813	-284.0113525390626	284.4578552246094	-1141.266845703125	-282.5869445800782	207.0895996093751	-1100.69482421875	-357.5523071289063	125.77294921875	-1105.17626953125	-319.7966918945313	141.0583648681641	-1027.169921875	-414.971893310547	96.78884887695315	-1049.085693359375	-199.5957031250001	58.69301605224611	-1049.794555664063	-205.8112335205079	53.2169876098633	-1095.569091796875	-261.9195556640626	37.60004806518555	-1138.000732421875	-239.3356933593751	810.5610961914065	-831.367126464844	-197.1606903076172	758.3621826171876	-832.6990966796877	-164.9767303466797	764.8463745117189	-839.1875610351565	-216.4671936035157	677.8601074218751	-839.3775634765627	-195.1824493408204	550.5416259765626	-838.7056274414065	-197.1404724121094	531.9199829101564	-969.839538574219	-177.9102172851563	358.3322143554688	-843.0095825195315	-265.1865844726563	302.0127258300782	-813.5745239257815	-222.0594940185547	286.7358398437501	-821.2854614257815	-214.6515197753907	234.4810180664063	-848.398864746094	-293.4006042480469	139.8348083496094	-816.760925292969	-267.2044982910157	137.2301940917969	-902.4747314453127	-358.6956787109376	92.72026824951173	-871.5718383789065	-138.779769897461	57.23088455200197	-853.898864746094	-146.335189819336	65.86209106445314	-815.995056152344	-195.7515716552735	55.15428924560548	-767.2155151367189	nan	nan	nan	
4	0.015	-126.2070693969727	1761.005859375	-1061.659790039063	-247.3612518310547	1727.677612304688	-1125.966796875	-325.7164306640626	1693.138916015625	-1005.922241210938	-346.0845031738282	1569.085083007813	-1047.736694335938	-390.7946777343751	1251.001953125	-1041.688110351563	-226.5898895263672	1487.60791015625	-1048.251708984375	-280.1646118164063	1524.261596679688	-1223.32763671875	-306.3447265625001	1316.288818359375	-1306.780883789063	-265.3803405761719	1293.143188476563	-1292.758422851563	-302.9286804199219	1248.05908203125	-1314.769653320313	-311.4956054687501	1184.342407226563	-1313.125854492188	-334.3176269531251	1173.390014648438	-1251.22119140625	-123.4886093139649	969.1750488281252	-1270.509765625	-167.5359191894532	949.9245605468752	-1330.665405273438	-78.9036331176758	889.5506591796877	-1284.660278320313	-261.6342468261719	1499.365356445313	-879.7432250976565	-275.6997070312501	1289.62451171875	-797.5166015625002	-236.9227905273438	1269.250732421875	-818.2009887695315	-265.5428466796876	1221.335083007813	-796.0755615234377	-251.7082672119141	1159.942260742188	-799.6010742187502	-295.2755432128907	1145.464599609375	-862.5257568359377	-76.03955078125001	944.1926269531252	-887.992614746094	-120.6772232055664	916.0127563476565	-833.1916503906252	-21.82071876525879	873.4191894531252	-867.448181152344	-210.1063995361329	1073.033447265625	-1148.90380859375	-218.6417388916016	1077.098754882813	-917.8467407226565	-400.3353576660157	1110.013305664063	-1035.186157226563	-405.9303283691407	1080.478393554688	-1062.958374023438	-411.101043701172	1079.510864257813	-1007.409790039063	-316.7779846191407	812.9949340820315	-1199.231323242188	-274.2108764648438	739.8183593750001	-1200.081909179688	-228.2235717773438	746.5539550781251	-1204.02978515625	-293.3105163574219	685.8479614257814	-1185.670654296875	-269.2741699218751	553.6456909179689	-1170.8369140625	-269.7415161132813	540.2658081054689	-1039.05029296875	-251.3502960205079	327.3912963867188	-1118.003662109375	-326.0753784179688	294.8936462402344	-1153.581176757813	-283.7556762695313	284.3815612792969	-1141.226196289063	-282.3679809570313	206.9172515869141	-1100.747680664063	-357.4639587402344	125.7498474121094	-1105.093994140625	-319.8325195312501	140.9885559082032	-1026.996459960938	-415.1954040527345	96.25895690917972	-1048.69384765625	-201.169906616211	59.65314102172853	-1049.788330078125	-205.7974090576172	53.1757049560547	-1095.568603515625	-261.9996948242188	37.65356445312501	-1137.99462890625	-237.8349609375001	810.1280517578127	-831.9167480468752	-195.3527069091797	758.3056640625001	-833.5441894531252	-162.8795776367188	764.7549438476564	-840.357604980469	-213.9200134277344	677.4725952148439	-840.352966308594	-192.2581481933594	550.2441406250001	-839.9890747070315	-194.0482940673829	532.3294067382814	-970.7734375000002	-176.0373229980469	358.0408935546876	-844.6748046875002	-263.2298583984376	302.0692749023438	-815.0217895507815	-220.3486480712891	286.9578857421876	-823.0105590820315	-213.4218444824219	234.5708312988282	-850.3591918945315	-292.7661132812501	140.4070434570313	-818.3927001953127	-266.6360168457032	137.6074981689453	-904.232116699219	-358.2883300781251	93.09716796875001	-873.354919433594	-137.7338409423828	56.85332489013673	-855.5403442382815	-145.9926452636719	66.81916809082033	-817.3461914062502	-195.4923400878907	56.41315841674806	-768.6579589843752	nan	nan	nan	
